<svg width="171" height="52" viewBox="0 0 171 52" fill="none" xmlns="http://www.w3.org/2000/svg">
<path d="M0.198975 0.200016V18.729C0.198975 37.293 20.744 51.104 20.744 51.104C20.744 51.104 41.293 37.293 41.293 18.729V0.200016" fill="#FDD429"/>
<path d="M41.094 0.398972V18.728C41.094 36.295 22.32 49.764 20.745 50.862C19.17 49.764 0.39801 36.295 0.39801 18.728V0.398972H41.094ZM0 -3.8147e-06V18.728C0 37.185 20.427 51.132 20.632 51.271L20.745 51.346L20.856 51.271C21.063 51.132 41.493 37.185 41.493 18.728V-3.8147e-06" fill="#231F20"/>
<path d="M8.85301 6.86899C8.85301 6.86899 8.09701 6.87299 8.00301 6.86899C7.84301 6.85699 7.76602 6.26897 8.09402 6.24897L33.756 6.902C33.985 6.912 33.931 7.502 33.548 7.502H32.944C32.944 7.502 20.28 17.206 22.204 26.002C22.677 28.163 25.351 31.038 25.351 31.038L24.701 31.159C24.701 31.159 22.965 28.91 20.425 28.02C18.553 27.366 16.475 28.668 18.881 31.202L18.979 31.441C18.979 31.441 7.90801 24.303 8.85301 6.86899Z" fill="#231F20"/>
<path d="M20.63 6.696L20.485 2.827L20.137 2.744L20.085 6.66499L20.63 6.696Z" fill="#231F20"/>
<path d="M20.361 5.21202C20.361 5.21202 19.184 5.125 19.208 4.267C19.226 3.549 20.131 3.47901 20.131 3.47901L20.361 3.13502C20.361 3.13502 19.969 3.11299 19.708 3.30499C19.486 3.46499 19.339 3.63102 18.996 3.51402C18.996 3.51402 18.305 3.15402 17.773 3.13502C17.295 3.12202 16.754 3.49302 16.673 3.55602C16.673 3.55602 16.249 3.89999 15.453 3.25499C15.225 3.06399 14.781 2.87001 14.234 2.94601C13.797 3.00701 13.862 3.30501 12.866 3.67501C12.866 3.67501 12.144 3.862 12.031 3.594C12.031 3.594 11.71 4.14102 12.639 4.23902C13.136 4.29002 13.756 3.90002 14.15 3.91402C15.077 3.92702 15.043 4.21798 15.287 4.44098C15.4 4.54898 16.227 5.08401 16.998 4.69601C17.617 4.37701 17.644 4.38401 17.851 4.40001C18.05 4.42701 18.081 4.81402 18.99 4.86202C19.086 4.87102 19.257 5.477 20.244 5.515" fill="#231F20"/>
<path d="M33.334 21.644C33.334 21.644 33.361 21.418 33.925 21.289C33.972 21.281 34.256 21.324 34.057 21.745L34.014 21.8429C34.014 21.8429 33.863 22.256 33.788 23.556L33.599 27.869C33.599 28.027 33.561 28.718 34.084 29.522C34.084 29.522 34.504 30.166 34.431 31.204C34.431 31.204 34.159 33.501 34.127 33.609C34.095 33.716 34.022 34.272 33.292 34.223C33.292 34.223 32.57 34.1119 32.613 33.4929C32.618 33.3869 33.368 21.761 33.334 21.644Z" fill="#231F20"/>
<path d="M33.141 28.453L25.607 29.938C25.607 29.938 25.346 30.166 25.271 30.321C25.271 30.321 25.039 30.737 25.433 30.702C25.448 30.702 25.495 30.63 25.495 30.63C25.495 30.63 25.607 30.321 25.836 30.287L33.217 28.754" fill="#231F20"/>
<path d="M19.606 27.74L19.567 31.192L20.366 31.383L20.445 27.502L19.606 27.74Z" fill="#231F20"/>
<path d="M32.803 21.153C32.803 21.153 32.491 32.021 32.224 32.824C32.224 32.824 32.175 34.082 30.596 34.476C30.596 34.476 9.94502 34.476 9.25602 34.452C9.25602 34.452 6.59002 34.249 6.55202 31.761C6.55202 31.761 6.00302 18.666 6.11702 17.44C6.11702 17.44 6.26802 17.253 6.60802 17.553L7.33202 18.091C7.33202 18.091 7.56002 18.298 7.36602 18.819C7.36602 18.819 6.38202 23.212 7.33202 25.812C7.33202 25.812 8.27302 29.938 11.264 30.32C11.264 30.32 17.966 31.277 27.958 30.744C27.958 30.744 31.29 30.248 31.894 26.613C31.894 26.613 32.613 23.136 31.739 20.614C31.739 20.614 31.627 20.384 32.238 20.576C32.238 20.576 32.838 20.847 32.803 21.153Z" fill="#231F20"/>
<path d="M6.76097 23.587C6.76097 23.587 6.96796 23.761 7.21396 23.587C7.21396 23.587 7.07196 23.127 7.33196 23.067C7.33196 23.067 8.60396 23.023 8.79996 22.997C8.79996 22.997 9.10897 23.109 8.81097 23.45C8.81097 23.45 7.10396 25.335 7.01396 25.335L6.42297 25.36C6.42297 25.36 4.94796 23.904 4.54496 23.412C4.54496 23.412 4.26097 23.127 4.65897 23.098H5.73896C5.73896 23.098 5.96597 23.127 5.99496 23.327C6.02296 23.534 5.99496 23.612 5.99496 23.612C5.99496 23.612 6.12496 23.787 6.39096 23.7C6.58196 23.632 6.76097 23.587 6.76097 23.587Z" fill="#231F20"/>
<path d="M58.319 41.146C56.932 41.13 55.864 41.115 54.949 41.085V44.164C55.803 44.149 56.779 44.135 58.029 44.119C58.395 44.119 58.411 44.288 58.411 44.611V44.827C58.411 45.151 58.395 45.32 58.029 45.32C56.779 45.303 55.803 45.289 54.949 45.273V49.663C54.949 50.017 54.856 50.11 54.568 50.11H53.927C53.546 50.11 53.454 50.048 53.454 49.663V40.221C53.454 39.837 53.621 39.821 53.927 39.821H58.319C58.563 39.821 58.7 39.867 58.7 40.221V40.653C58.7 40.976 58.685 41.146 58.319 41.146Z" fill="#231F20"/>
<path d="M67.713 40.406L64.694 46.105V49.663C64.694 50.017 64.587 50.11 64.313 50.11H63.673C63.275 50.11 63.199 50.048 63.199 49.663V46.244L60.118 40.406C60.043 40.269 60.027 40.16 60.027 40.067C60.027 39.897 60.148 39.821 60.348 39.821H61.156C61.491 39.821 61.553 39.913 61.675 40.144L63.946 44.565L66.295 40.144C66.417 39.913 66.479 39.821 66.814 39.821H67.47C67.668 39.821 67.805 39.897 67.805 40.067C67.82 40.16 67.79 40.269 67.713 40.406Z" fill="#231F20"/>
<path d="M74.363 50.11H70.108C69.727 50.11 69.635 50.047 69.635 49.663V40.222C69.635 39.837 69.802 39.822 70.108 39.822H70.748C71.085 39.822 71.13 39.96 71.13 40.222V48.831C72.014 48.815 73.037 48.801 74.363 48.785C74.729 48.785 74.729 48.954 74.729 49.277V49.71C74.729 50.063 74.607 50.11 74.363 50.11Z" fill="#231F20"/>
<path d="M83.254 50.11H82.218C81.882 50.11 81.745 50.047 81.499 49.77L77.902 45.858V49.663C77.902 50.017 77.811 50.11 77.52 50.11H76.879C76.498 50.11 76.406 50.047 76.406 49.663V40.222C76.406 39.837 76.574 39.822 76.879 39.822H77.52C77.856 39.822 77.902 39.96 77.902 40.222V44.474L81.499 40.16C81.745 39.867 81.836 39.822 82.142 39.822H82.92C83.254 39.822 83.27 40.052 83.102 40.252L79.182 44.981L83.361 49.556C83.652 49.862 83.561 50.11 83.254 50.11Z" fill="#231F20"/>
<path d="M90.516 50.11H85.832C85.452 50.11 85.361 50.047 85.361 49.663V40.222C85.361 39.837 85.529 39.822 85.832 39.822H90.516C90.758 39.822 90.897 39.867 90.897 40.222V40.653C90.897 40.976 90.881 41.147 90.516 41.147C89.127 41.131 87.8 41.115 86.854 41.085V44.179C87.756 44.149 88.806 44.135 90.181 44.119C90.547 44.119 90.561 44.287 90.561 44.611V44.827C90.561 45.151 90.547 45.319 90.181 45.319C88.806 45.303 87.756 45.29 86.854 45.258V48.847C87.8 48.815 89.127 48.801 90.516 48.785C90.881 48.785 90.897 48.954 90.897 49.277V49.71C90.897 50.063 90.758 50.11 90.516 50.11Z" fill="#231F20"/>
<path d="M98.37 49.169C97.866 50.201 96.509 50.247 95.473 50.247C94.619 50.247 93.781 50.171 93.275 50.125C92.88 50.093 92.741 50.064 92.741 49.832V49.294C92.741 48.939 92.759 48.785 93.047 48.785C93.886 48.785 93.689 48.909 95.7 48.909C96.784 48.909 97.181 48.801 97.181 47.598C97.181 46.459 97.164 46.213 96.479 45.919C95.854 45.643 95.214 45.366 94.588 45.072C93.093 44.38 92.848 44.134 92.848 42.331C92.848 41.592 92.848 40.791 93.429 40.268C94.039 39.698 94.923 39.714 96.189 39.714C96.875 39.714 97.241 39.744 97.898 39.791C98.279 39.822 98.432 39.852 98.432 40.083V40.622C98.432 40.976 98.416 41.131 98.127 41.131C97.532 41.131 97.684 41.054 96.479 41.054C96.205 41.054 95.671 41.038 95.397 41.038C94.314 41.038 94.298 41.5 94.298 42.485C94.298 43.209 94.343 43.379 94.984 43.687C95.397 43.871 95.823 44.057 96.236 44.241C98.187 45.12 98.631 45.335 98.631 47.044C98.631 47.63 98.631 48.646 98.37 49.169Z" fill="#231F20"/>
<path d="M107.749 50.11H106.713C106.377 50.11 106.239 50.047 105.995 49.77L102.395 45.858V49.663C102.395 50.017 102.304 50.11 102.014 50.11H101.374C100.993 50.11 100.902 50.047 100.902 49.663V40.222C100.902 39.837 101.068 39.822 101.374 39.822H102.014C102.352 39.822 102.395 39.96 102.395 40.222V44.474L105.995 40.16C106.239 39.867 106.332 39.822 106.636 39.822H107.414C107.749 39.822 107.766 40.052 107.598 40.252L103.679 44.981L107.856 49.556C108.147 49.862 108.056 50.11 107.749 50.11Z" fill="#231F20"/>
<path d="M115.818 42.07C115.422 41.161 114.584 40.869 113.7 40.869C112.814 40.869 111.975 41.161 111.579 42.07C111.259 42.81 111.213 44.165 111.213 44.981C111.213 45.797 111.259 47.138 111.579 47.877C111.959 48.785 112.798 49.077 113.7 49.077C114.598 49.077 115.422 48.785 115.818 47.877C116.138 47.138 116.184 45.797 116.184 44.981C116.184 44.165 116.138 42.81 115.818 42.07ZM116.763 49.063C116.002 50.079 115.011 50.433 113.7 50.433C112.386 50.433 111.395 50.079 110.634 49.063C109.763 47.877 109.641 46.429 109.641 44.981C109.641 43.533 109.763 42.07 110.634 40.885C111.427 39.806 112.463 39.529 113.7 39.529C114.934 39.529 115.956 39.806 116.763 40.885C117.634 42.07 117.756 43.533 117.756 44.981C117.756 46.429 117.634 47.877 116.763 49.063Z" fill="#231F20"/>
<path d="M129.439 50.11H128.799C128.523 50.11 128.432 50.017 128.417 49.663L127.959 41.761C127.836 42.163 127.654 42.885 127.502 43.317C126.876 45.151 126.19 47.167 125.716 48.431C125.596 48.769 125.489 48.894 125.137 48.894H124.742C124.389 48.894 124.299 48.769 124.177 48.431C123.705 47.167 122.988 45.151 122.363 43.317C122.209 42.885 122.041 42.163 121.935 41.761L121.447 49.663C121.431 50.017 121.355 50.11 121.065 50.11H120.425C120.043 50.11 119.922 50.047 119.953 49.663L120.731 40.222C120.761 39.837 120.898 39.822 121.203 39.822H122.057C122.392 39.822 122.469 39.897 122.56 40.144C123.185 41.822 124.206 44.795 124.941 46.952C125.672 44.795 126.694 41.822 127.303 40.144C127.395 39.897 127.488 39.822 127.822 39.822H128.676C128.981 39.822 129.104 39.837 129.134 40.222L129.911 49.663C129.943 50.047 129.835 50.11 129.439 50.11Z" fill="#231F20"/>
<path d="M141.596 50.11H140.955C140.68 50.11 140.589 50.017 140.574 49.663L140.115 41.761C139.994 42.163 139.811 42.885 139.658 43.317C139.033 45.151 138.347 47.167 137.873 48.431C137.751 48.769 137.644 48.894 137.294 48.894H136.897C136.547 48.894 136.455 48.769 136.333 48.431C135.861 47.167 135.144 45.151 134.519 43.317C134.367 42.885 134.197 42.163 134.092 41.761L133.603 49.663C133.588 50.017 133.512 50.11 133.222 50.11H132.581C132.2 50.11 132.078 50.047 132.109 49.663L132.885 40.222C132.918 39.837 133.054 39.822 133.358 39.822H134.213C134.549 39.822 134.624 39.897 134.717 40.144C135.342 41.822 136.363 44.795 137.095 46.952C137.828 44.795 138.85 41.822 139.459 40.144C139.551 39.897 139.642 39.822 139.979 39.822H140.833C141.138 39.822 141.26 39.837 141.29 40.222L142.068 49.663C142.099 50.047 141.992 50.11 141.596 50.11Z" fill="#231F20"/>
<path d="M151.784 47.569C151.662 48.384 151.357 49.077 150.93 49.54C150.411 50.094 149.573 50.341 148.108 50.341C146.66 50.341 145.82 50.094 145.302 49.54C144.875 49.077 144.57 48.384 144.448 47.569C144.294 46.613 144.265 45.827 144.265 43.641V40.222C144.265 39.838 144.432 39.822 144.738 39.822H145.377C145.714 39.822 145.76 39.961 145.76 40.222V44.996C145.76 46.798 145.835 47.415 146.11 48.031C146.415 48.724 146.978 48.985 148.108 48.985C149.252 48.985 149.817 48.724 150.121 48.031C150.395 47.415 150.472 46.798 150.472 44.996V40.222C150.472 39.838 150.656 39.822 150.96 39.822H151.601C151.936 39.822 151.967 39.961 151.967 40.222V43.641C151.967 45.827 151.936 46.613 151.784 47.569Z" fill="#231F20"/>
<path d="M161.606 50.11H161.103C160.843 50.11 160.66 50.126 160.478 49.878C159.242 48.092 157.214 44.872 155.733 42.547V49.663C155.733 50.017 155.627 50.11 155.352 50.11H154.713C154.315 50.11 154.239 50.047 154.239 49.663V40.222C154.239 39.837 154.391 39.822 154.713 39.822H155.14C155.46 39.822 155.55 39.837 155.688 40.036C156.939 41.87 158.815 44.842 160.491 47.399V40.222C160.491 39.837 160.645 39.822 160.951 39.822H161.606C161.941 39.822 161.987 39.96 161.987 40.222V49.663C161.987 50.017 161.881 50.11 161.606 50.11Z" fill="#231F20"/>
<path d="M169.614 50.11H164.931C164.549 50.11 164.459 50.047 164.459 49.663V40.222C164.459 39.837 164.626 39.822 164.931 39.822H169.614C169.857 39.822 169.995 39.867 169.995 40.222V40.653C169.995 40.976 169.979 41.147 169.614 41.147C168.225 41.131 166.898 41.115 165.953 41.085V44.179C166.853 44.149 167.906 44.135 169.277 44.119C169.644 44.119 169.659 44.287 169.659 44.611V44.827C169.659 45.151 169.644 45.319 169.277 45.319C167.906 45.303 166.853 45.29 165.953 45.258V48.847C166.898 48.815 168.225 48.801 169.614 48.785C169.979 48.785 169.995 48.954 169.995 49.277V49.71C169.995 50.063 169.857 50.11 169.614 50.11Z" fill="#231F20"/>
<path d="M70.216 2.319C70.136 3.215 70.118 6.68801 70.17 10.929L70.183 8.99898C70.245 14.052 70.406 20.195 70.686 24.399C70.686 24.399 61.092 13.19 57.093 7.12198C57.093 7.12198 56.975 5.40401 56.954 4.13502C56.933 2.86102 56.247 2.48799 56.247 2.48799C56.247 2.48799 54.24 1.12701 53.381 0.629009C53.381 0.629009 53.366 17.281 53.366 25.685C53.366 32.445 57.609 32.804 57.609 32.804L57.364 13.22C62.299 20.129 70.929 34.072 74.248 33.383C74.248 33.383 74.654 15.511 74.824 9.93599C74.993 4.36099 70.216 2.319 70.216 2.319Z" fill="#231F20"/>
<path d="M141.947 20.84C141.947 20.84 140.941 25.488 142.628 29.185C144.1 27.337 144.4 22.069 146.949 22.595C149.496 23.122 148.006 32.402 153.159 33.591C154.07 21.902 149.93 10.861 141.947 20.84Z" fill="#231F20"/>
<path d="M91.672 26.692C91.777 30.402 92.993 33.383 92.993 33.383C95.814 31.31 93.998 25.254 95.325 23.731C96.653 22.207 98.007 22.547 98.31 22.721C98.748 21.608 98.03 19.471 97.148 18.954C96.266 18.436 94.885 18.261 93.659 19.235C92.436 20.207 91.241 21.3 90.529 21.537C90.529 21.537 91.566 22.984 91.672 26.692Z" fill="#231F20"/>
<path d="M121.759 2.512C121.787 1.686 120.855 1.31 120.855 1.31C120.855 1.31 119.521 0.698963 118.051 0.198963C118.051 0.198963 117.978 20.828 117.718 28.244C117.51 34.195 121.11 33.117 121.11 33.117L121.461 14.842C121.461 14.842 121.714 3.799 121.759 2.512Z" fill="#231F20"/>
<path d="M110.177 24.734C109.245 26.92 108.139 28.573 105.145 30.567C103.947 29.313 103.736 25.343 104.518 23.952C105.301 22.562 108.42 21.301 110.128 21.639C110.391 21.717 110.342 24.266 110.177 24.734ZM103.612 33.125C103.616 33.126 104.554 33.899 105.496 33.437C106.587 32.823 108.583 31.481 110.33 29.096C111.084 33.068 113.743 32.946 113.743 32.946L114.094 13.756C114.094 13.756 114.296 7.36603 114.309 6.07903C114.325 4.59803 113.519 4.20803 113.519 4.20803C113.519 4.20803 111.235 2.86602 110.375 2.36502C110.375 2.36502 110.416 9.53703 110.3 18.425C106.576 18.235 100.487 20.064 100.338 24.306C100.148 29.762 102.268 31.974 103.612 33.125Z" fill="#231F20"/>
<path d="M166.469 21.729C166.65 21.795 166.569 24.285 166.401 24.892C165.436 27.383 164.431 28.447 162.312 29.99C160.943 29.136 159.045 27.657 159.828 26.267C160.609 24.875 165.084 21.823 166.469 21.729ZM162.752 33.493C162.722 33.525 162.768 33.479 162.752 33.493C163.663 32.686 165.087 31.224 166.462 29.07C167.095 33.498 169.981 32.67 169.981 32.67L170.035 11.754C170.035 11.754 170.12 7.498 170.135 6.211C170.15 4.919 169.347 4.34098 169.347 4.34098C169.347 4.34098 169.136 4.06799 166.515 3.32399C166.515 3.32399 166.6 10.315 166.508 18.516C162.987 19.242 155.694 22.022 155.528 26.739C155.404 30.306 158.729 32.252 160.544 33.564C160.558 33.573 161.701 34.316 162.752 33.493Z" fill="#231F20"/>
<path d="M88.654 27.176C88.71 25.428 88.32 23.399 87.099 20.879C85.877 18.36 82.866 17.899 82.866 17.899C82.866 24.239 87.286 23.864 86.438 29.076C86.438 29.076 85.68 29.815 83.267 29.674C79.912 29.477 80.813 23.21 81.477 21.051C74.01 22.964 75.394 35.514 86.115 33.383C87.858 31.824 88.578 29.588 88.654 27.176Z" fill="#231F20"/>
<path d="M125.954 29.888C126.047 27.224 130.263 22.183 134.619 21.644C132.074 23.808 130.674 30.422 125.954 29.888ZM123.735 29.114C123.735 29.114 123.284 30.753 124.064 31.347C126.625 33.441 133.205 32.9 135.145 26.542C135.307 30.173 136.362 34.275 140.816 33.719C141.079 33.677 140.137 29.685 139.088 25.829C138.039 21.972 137.516 20.416 136.992 19.086C136.467 17.757 134.992 17.811 134.987 17.813C128.255 18.636 125.311 24.055 123.735 29.114Z" fill="#231F20"/>
</svg>
