<svg width="236" height="39" viewBox="0 0 236 39" fill="none" xmlns="http://www.w3.org/2000/svg">
<mask id="mask0_67_72" style="mask-type:luminance" maskUnits="userSpaceOnUse" x="0" y="0" width="236" height="39">
<path d="M0 38.6207H235.916V2.28882e-05H0V38.6207Z" fill="white"/>
</mask>
<g mask="url(#mask0_67_72)">
<path d="M164.66 22.8967C161.963 22.8967 160.517 21.9677 159.354 21.2207C158.404 20.6107 157.719 20.1697 156.172 20.1697C154.626 20.1697 153.94 20.6107 152.99 21.2207C151.829 21.9677 150.381 22.8967 147.685 22.8967C144.988 22.8967 143.542 21.9677 142.379 21.2207C141.431 20.6107 140.745 20.1697 139.199 20.1697V14.7657C141.894 14.7657 143.342 15.6957 144.504 16.4427C145.453 17.0527 146.138 17.4927 147.685 17.4927C149.231 17.4927 149.917 17.0527 150.867 16.4427C152.029 15.6957 153.476 14.7657 156.172 14.7657C158.869 14.7657 160.315 15.6957 161.478 16.4427C162.426 17.0527 163.113 17.4927 164.66 17.4927C166.206 17.4927 166.892 17.0527 167.842 16.4427C169.004 15.6957 170.451 14.7657 173.147 14.7657V20.1697C171.601 20.1697 170.915 20.6107 169.965 21.2207C168.803 21.9677 167.356 22.8967 164.66 22.8967Z" fill="#231F20"/>
<path d="M139.199 32.6207H148.56V27.5938H139.199V32.6207Z" fill="#231F20"/>
<path d="M151.492 32.6207H160.853V27.5938H151.492V32.6207Z" fill="#231F20"/>
<path d="M163.786 32.6207H173.147V27.5938H163.786V32.6207Z" fill="#231F20"/>
<path d="M164.342 3.13769L156.233 9.02369L148.124 3.13769L139.199 9.67669V10.4987H154.389H158.076H173.147V9.58069" fill="#231F20"/>
<path d="M201.779 14.0947C201.779 13.6107 201.721 13.1447 201.606 12.6967C201.491 12.2467 201.306 11.8487 201.053 11.5037C200.799 11.1577 200.471 10.8877 200.068 10.6917C199.665 10.4967 199.187 10.3987 198.635 10.3987C197.598 10.3987 196.745 10.7437 196.077 11.4347C195.409 12.1257 195.006 13.0357 194.868 14.1647L201.779 14.0947ZM205.96 16.9287H194.798V17.0667C194.798 18.5647 195.265 19.6827 196.198 20.4197C197.131 21.1557 198.358 21.5257 199.878 21.5257C200.777 21.5257 201.577 21.4447 202.28 21.2827C202.982 21.1217 203.656 20.9037 204.302 20.6257L204.831 23.6377C204.163 23.9377 203.633 24.0467 202.712 24.2557C201.79 24.4627 200.719 24.5667 199.498 24.5667C198.277 24.5667 197.131 24.4037 196.06 24.0807C194.989 23.7597 194.05 23.2537 193.244 22.5607C192.437 21.8697 191.798 20.9947 191.326 19.9347C190.853 18.8757 190.617 17.6097 190.617 16.1347C190.617 14.8447 190.813 13.6697 191.205 12.6097C191.596 11.5507 192.149 10.6397 192.863 9.87871C193.577 9.11971 194.441 8.53271 195.455 8.11671C196.469 7.70171 197.586 7.49471 198.807 7.49471C200.995 7.49471 202.735 8.16271 204.025 9.49871C205.315 10.8357 205.96 12.6897 205.96 15.0627" fill="#231F20"/>
<path d="M224.611 10.9927C224.611 10.9927 222.429 10.5017 221.567 10.5017C220.713 10.5017 220.063 10.6517 219.613 10.9507C219.165 11.2507 218.94 11.6657 218.94 12.1947C218.94 12.6327 219.125 13.0067 219.493 13.3187C219.861 13.6297 220.599 13.9467 221.704 14.2687L222.742 14.5797C224.216 15.0177 225.327 15.6157 226.076 16.3767C226.825 17.1367 227.199 18.1387 227.199 19.3827C227.199 20.9727 226.6 22.2337 225.403 23.1667C224.204 24.0997 222.569 24.5657 220.495 24.5657C218.261 24.5657 216.753 24.1807 215.297 23.5407L215.831 20.4197C216.498 20.7417 217.207 21.0067 217.956 21.2137C218.704 21.4217 219.482 21.5257 220.288 21.5257C222.2 21.5257 223.156 20.9157 223.156 19.6937C223.156 19.1407 222.932 18.7267 222.483 18.4497C222.033 18.1737 221.267 17.8747 220.184 17.5517L219.113 17.2057C217.685 16.7457 216.631 16.1407 215.952 15.3917C215.27 14.6427 214.932 13.6587 214.932 12.4367C214.932 11.7237 215.082 11.0607 215.381 10.4497C215.679 9.83967 216.101 9.31567 216.642 8.87767C217.183 8.44067 217.84 8.09967 218.611 7.85867C219.384 7.61667 220.242 7.49568 221.186 7.49568C222.131 7.49568 223.047 7.58167 223.934 7.75467C224.82 7.92768 225.644 8.18668 226.404 8.53168" fill="#231F20"/>
<path d="M191.488 7.92368C191.211 7.78468 190.854 7.65268 190.44 7.53668C190.026 7.42168 189.542 7.36368 188.988 7.36368C187.722 7.36368 186.661 7.69268 185.81 8.34868C184.957 9.00568 184.347 9.79468 183.956 10.7387L183.418 7.67468H180.281V24.0887H184.324V16.2337C184.324 14.4837 184.727 13.2047 185.533 12.3977C186.34 11.5917 187.329 11.1887 188.504 11.1887C188.715 11.1887 188.908 11.1987 189.092 11.2157" fill="#231F20"/>
<path d="M208.135 7.11969L208.716 10.4757H211.071L208.273 14.3107V24.0887H212.469V7.11969" fill="#231F20"/>
<path d="M180.395 32.6947V28.8547H181.029L181.152 29.5957C181.244 29.3677 181.393 29.1767 181.599 29.0217C181.805 28.8667 182.054 28.7897 182.347 28.7897C182.478 28.7897 182.59 28.8007 182.685 28.8227C182.78 28.8437 182.865 28.8737 182.941 28.9117L182.787 29.6117C182.722 29.5787 182.647 29.5517 182.563 29.5297C182.479 29.5087 182.382 29.4977 182.274 29.4977C181.976 29.4977 181.726 29.5987 181.525 29.8027C181.325 30.0057 181.225 30.3137 181.225 30.7257V32.6947" fill="#231F20"/>
<path d="M185.902 30.3357C185.902 30.2057 185.886 30.0837 185.853 29.9697C185.821 29.8557 185.772 29.7557 185.707 29.6717C185.642 29.5877 185.556 29.5197 185.451 29.4697C185.345 29.4177 185.219 29.3917 185.072 29.3917C184.801 29.3917 184.58 29.4787 184.409 29.6517C184.239 29.8257 184.134 30.0597 184.096 30.3517L185.902 30.3357ZM186.764 30.9217H184.072V30.9537C184.072 31.3447 184.186 31.6407 184.413 31.8407C184.641 32.0417 184.942 32.1417 185.316 32.1417C185.522 32.1417 185.708 32.1237 185.874 32.0877C186.039 32.0537 186.206 31.9967 186.374 31.9217L186.537 32.5327C186.379 32.6017 186.192 32.6607 185.975 32.7057C185.758 32.7537 185.52 32.7767 185.259 32.7767C184.983 32.7767 184.72 32.7377 184.47 32.6627C184.221 32.5857 184.003 32.4677 183.815 32.3037C183.628 32.1417 183.48 31.9357 183.372 31.6857C183.264 31.4357 183.209 31.1377 183.209 30.7907C183.209 30.4927 183.254 30.2197 183.343 29.9737C183.433 29.7267 183.56 29.5157 183.726 29.3397C183.891 29.1627 184.092 29.0267 184.328 28.9327C184.564 28.8377 184.825 28.7897 185.113 28.7897C185.362 28.7897 185.589 28.8307 185.792 28.9127C185.996 28.9937 186.169 29.1087 186.313 29.2577C186.457 29.4057 186.568 29.5877 186.646 29.8017C186.725 30.0167 186.764 30.2537 186.764 30.5147" fill="#231F20"/>
<path d="M187.83 28.8547H188.668V32.6949H187.83V28.8547ZM188.253 27.9027C188.107 27.9027 187.99 27.8587 187.904 27.7687C187.816 27.6797 187.773 27.5667 187.773 27.4317C187.773 27.2957 187.816 27.1827 187.904 27.0937C187.99 27.0037 188.107 26.9597 188.253 26.9597C188.394 26.9597 188.509 27.0037 188.599 27.0937C188.688 27.1827 188.733 27.2957 188.733 27.4317C188.733 27.5717 188.688 27.6857 188.599 27.7727C188.509 27.8597 188.394 27.9027 188.253 27.9027Z" fill="#231F20"/>
<path d="M192.199 29.6357C192.025 29.5547 191.864 29.4957 191.715 29.4607C191.566 29.4257 191.418 29.4077 191.271 29.4077C191.044 29.4077 190.871 29.4507 190.755 29.5337C190.638 29.6187 190.58 29.7307 190.58 29.8717C190.58 29.9807 190.623 30.0737 190.71 30.1527C190.797 30.2307 190.976 30.3087 191.247 30.3837L191.491 30.4577C191.844 30.5657 192.111 30.7067 192.292 30.8807C192.474 31.0537 192.565 31.2867 192.565 31.5797C192.565 31.9377 192.43 32.2267 192.158 32.4467C191.887 32.6657 191.516 32.7757 191.044 32.7757C190.789 32.7757 190.551 32.7527 190.332 32.7067C190.112 32.6607 189.916 32.5967 189.742 32.5157L189.937 31.8807C190.095 31.9567 190.263 32.0197 190.442 32.0677C190.621 32.1167 190.805 32.1417 190.995 32.1417C191.228 32.1417 191.41 32.1007 191.54 32.0197C191.67 31.9377 191.735 31.8137 191.735 31.6447C191.735 31.4877 191.677 31.3757 191.56 31.3077C191.444 31.2397 191.263 31.1677 191.019 31.0917L190.767 31.0187C190.426 30.9047 190.172 30.7607 190.007 30.5877C189.841 30.4137 189.758 30.1867 189.758 29.9037C189.758 29.7357 189.794 29.5847 189.864 29.4487C189.935 29.3137 190.032 29.1967 190.157 29.0987C190.281 29.0007 190.432 28.9257 190.608 28.8707C190.785 28.8167 190.979 28.7897 191.19 28.7897C191.391 28.7897 191.596 28.8087 191.804 28.8467C192.013 28.8847 192.207 28.9447 192.386 29.0257" fill="#231F20"/>
<path d="M194.37 32.6947H193.533V28.8547H194.192L194.306 29.3677C194.495 29.1827 194.695 29.0407 194.904 28.9407C195.113 28.8397 195.35 28.7897 195.616 28.7897C196.022 28.7897 196.336 28.9007 196.559 29.1227C196.782 29.3457 196.893 29.6627 196.893 30.0747V32.6947H196.054V30.1807C196.054 29.9587 195.997 29.7827 195.884 29.6517C195.77 29.5217 195.6 29.4567 195.372 29.4567C195.197 29.4567 195.026 29.4987 194.854 29.5837C194.684 29.6667 194.522 29.7877 194.37 29.9447" fill="#231F20"/>
<path d="M200.846 30.7747C200.846 30.5307 200.816 30.3227 200.757 30.1517C200.697 29.9817 200.618 29.8417 200.521 29.7337C200.423 29.6247 200.312 29.5457 200.187 29.4977C200.062 29.4487 199.932 29.4237 199.797 29.4237C199.667 29.4237 199.539 29.4457 199.414 29.4897C199.289 29.5327 199.178 29.6057 199.081 29.7087C198.983 29.8117 198.906 29.9497 198.849 30.1237C198.792 30.2977 198.763 30.5137 198.763 30.7747C198.763 31.0137 198.793 31.2187 198.853 31.3927C198.913 31.5667 198.991 31.7087 199.089 31.8197C199.187 31.9307 199.299 32.0127 199.426 32.0637C199.554 32.1157 199.683 32.1417 199.813 32.1417C199.943 32.1417 200.071 32.1197 200.195 32.0757C200.32 32.0327 200.431 31.9587 200.529 31.8527C200.626 31.7467 200.704 31.6057 200.761 31.4297C200.818 31.2527 200.846 31.0347 200.846 30.7747ZM201.717 30.7337C201.717 31.0537 201.666 31.3417 201.566 31.5967C201.466 31.8507 201.329 32.0657 201.155 32.2387C200.982 32.4127 200.778 32.5457 200.545 32.6377C200.312 32.7297 200.06 32.7757 199.788 32.7757C199.517 32.7757 199.266 32.7327 199.036 32.6457C198.805 32.5587 198.605 32.4327 198.434 32.2677C198.263 32.1017 198.13 31.8967 198.036 31.6537C197.94 31.4097 197.893 31.1297 197.893 30.8147C197.893 30.4897 197.943 30.2027 198.043 29.9527C198.144 29.7037 198.281 29.4917 198.454 29.3187C198.628 29.1447 198.831 29.0137 199.064 28.9237C199.298 28.8347 199.55 28.7897 199.821 28.7897C200.092 28.7897 200.343 28.8317 200.574 28.9157C200.804 28.9997 201.005 29.1227 201.176 29.2857C201.347 29.4487 201.479 29.6517 201.574 29.8957C201.669 30.1397 201.717 30.4197 201.717 30.7337Z" fill="#231F20"/>
<path d="M202.709 32.6947V28.8547H203.343L203.466 29.5957C203.558 29.3677 203.707 29.1767 203.913 29.0217C204.119 28.8667 204.368 28.7897 204.661 28.7897C204.792 28.7897 204.904 28.8007 204.999 28.8227C205.094 28.8437 205.179 28.8737 205.255 28.9117L205.101 29.6117C205.036 29.5787 204.961 29.5517 204.877 29.5297C204.793 29.5087 204.696 29.4977 204.588 29.4977C204.29 29.4977 204.04 29.5987 203.839 29.8027C203.639 30.0057 203.539 30.3137 203.539 30.7257V32.6947" fill="#231F20"/>
<path d="M208.241 29.8067C208.013 29.5467 207.739 29.4167 207.419 29.4167C207.278 29.4167 207.143 29.4407 207.012 29.4897C206.882 29.5387 206.766 29.6167 206.663 29.7247C206.559 29.8337 206.478 29.9727 206.419 30.1397C206.359 30.3087 206.329 30.5147 206.329 30.7587C206.329 31.0027 206.357 31.2117 206.414 31.3847C206.471 31.5587 206.546 31.7027 206.638 31.8157C206.73 31.9297 206.838 32.0127 206.96 32.0637C207.082 32.1157 207.208 32.1417 207.338 32.1417C207.533 32.1417 207.705 32.0977 207.854 32.0117C208.004 31.9247 208.132 31.8027 208.241 31.6457V29.8067ZM208.241 26.9107H209.079V32.6947H208.42L208.322 32.2717H208.29C208.149 32.4347 207.992 32.5587 207.818 32.6457C207.644 32.7327 207.419 32.7757 207.143 32.7757C206.926 32.7757 206.718 32.7337 206.52 32.6497C206.322 32.5657 206.146 32.4397 205.992 32.2717C205.837 32.1037 205.714 31.8947 205.621 31.6457C205.529 31.3957 205.483 31.1087 205.483 30.7827C205.483 30.4797 205.523 30.2057 205.601 29.9607C205.68 29.7177 205.794 29.5087 205.943 29.3347C206.092 29.1607 206.275 29.0267 206.492 28.9317C206.709 28.8377 206.956 28.7897 207.232 28.7897C207.422 28.7897 207.606 28.8197 207.786 28.8797C207.965 28.9387 208.116 29.0227 208.241 29.1317" fill="#231F20"/>
<path d="M210.34 32.6947H211.162V26.9107H210.34V32.6947Z" fill="#231F20"/>
<path d="M214.603 30.9537L214.091 30.9617C213.706 30.9727 213.434 31.0407 213.277 31.1657C213.12 31.2897 213.041 31.4367 213.041 31.6047C213.041 31.7137 213.059 31.8027 213.094 31.8727C213.129 31.9437 213.177 32.0007 213.236 32.0437C213.295 32.0877 213.365 32.1187 213.444 32.1377C213.522 32.1567 213.602 32.1657 213.684 32.1657C213.852 32.1657 214.019 32.1237 214.184 32.0397C214.349 31.9557 214.488 31.8357 214.603 31.6777V30.9537ZM212.472 29.1967C212.72 29.0607 212.961 28.9597 213.191 28.8917C213.422 28.8237 213.678 28.7897 213.96 28.7897C214.177 28.7897 214.376 28.8147 214.558 28.8627C214.74 28.9117 214.895 28.9907 215.026 29.0987C215.156 29.2077 215.258 29.3527 215.331 29.5337C215.404 29.7157 215.441 29.9367 215.441 30.1967V32.6947H214.766L214.676 32.2797H214.652C214.5 32.4537 214.324 32.5797 214.122 32.6577C213.922 32.7367 213.7 32.7757 213.456 32.7757C213.07 32.7757 212.761 32.6727 212.525 32.4667C212.288 32.2607 212.17 31.9867 212.17 31.6457C212.17 31.4337 212.213 31.2507 212.301 31.0957C212.386 30.9417 212.509 30.8127 212.667 30.7097C212.824 30.6067 213.011 30.5297 213.228 30.4777C213.445 30.4267 213.684 30.4007 213.944 30.4007H214.595V30.1077C214.595 29.8637 214.529 29.6937 214.4 29.5987C214.27 29.5047 214.091 29.4567 213.863 29.4567C213.72 29.4567 213.563 29.4797 213.386 29.5267C213.211 29.5727 213.009 29.6577 212.781 29.7817" fill="#231F20"/>
<path d="M217.45 32.6947H216.612V28.8547H217.271L217.385 29.3677C217.575 29.1827 217.774 29.0407 217.983 28.9407C218.192 28.8397 218.429 28.7897 218.695 28.7897C219.102 28.7897 219.416 28.9007 219.638 29.1227C219.861 29.3457 219.972 29.6627 219.972 30.0747V32.6947H219.134V30.1807C219.134 29.9587 219.077 29.7827 218.963 29.6517C218.849 29.5217 218.678 29.4567 218.451 29.4567C218.277 29.4567 218.105 29.4987 217.934 29.5837C217.763 29.6667 217.602 29.7877 217.45 29.9447" fill="#231F20"/>
<path d="M223.73 29.8067C223.502 29.5467 223.228 29.4167 222.908 29.4167C222.767 29.4167 222.632 29.4407 222.501 29.4897C222.371 29.5387 222.255 29.6167 222.152 29.7247C222.048 29.8337 221.967 29.9727 221.908 30.1397C221.848 30.3087 221.818 30.5147 221.818 30.7587C221.818 31.0027 221.847 31.2117 221.903 31.3847C221.96 31.5587 222.035 31.7027 222.127 31.8157C222.219 31.9297 222.327 32.0127 222.449 32.0637C222.571 32.1157 222.697 32.1417 222.827 32.1417C223.022 32.1417 223.194 32.0977 223.343 32.0117C223.493 31.9247 223.621 31.8027 223.73 31.6457V29.8067ZM223.73 26.9107H224.568V32.6947H223.909L223.811 32.2717H223.779C223.638 32.4347 223.481 32.5587 223.307 32.6457C223.133 32.7327 222.908 32.7757 222.632 32.7757C222.415 32.7757 222.207 32.7337 222.009 32.6497C221.811 32.5657 221.635 32.4397 221.481 32.2717C221.326 32.1037 221.203 31.8947 221.11 31.6457C221.018 31.3957 220.972 31.1087 220.972 30.7827C220.972 30.4797 221.012 30.2057 221.09 29.9607C221.169 29.7177 221.283 29.5087 221.432 29.3347C221.581 29.1607 221.764 29.0267 221.981 28.9317C222.198 28.8377 222.445 28.7897 222.721 28.7897C222.911 28.7897 223.095 28.8197 223.275 28.8797C223.454 28.9387 223.605 29.0227 223.73 29.1317" fill="#231F20"/>
<path d="M225.691 32.2067C225.691 32.0497 225.745 31.9177 225.854 31.8117C225.961 31.7057 226.09 31.6537 226.236 31.6537C226.383 31.6537 226.509 31.7057 226.613 31.8117C226.72 31.9177 226.772 32.0497 226.772 32.2067C226.772 32.3807 226.72 32.5187 226.613 32.6217C226.509 32.7247 226.383 32.7757 226.236 32.7757C226.09 32.7757 225.961 32.7247 225.854 32.6217C225.745 32.5187 225.691 32.3807 225.691 32.2067Z" fill="#231F20"/>
<path d="M228.57 32.6947H227.733V28.8547H228.392L228.506 29.3677C228.695 29.1827 228.894 29.0407 229.103 28.9407C229.312 28.8397 229.549 28.7897 229.815 28.7897C230.222 28.7897 230.536 28.9007 230.758 29.1227C230.981 29.3457 231.092 29.6627 231.092 30.0747V32.6947H230.254V30.1807C230.254 29.9587 230.197 29.7827 230.083 29.6517C229.969 29.5217 229.799 29.4567 229.571 29.4567C229.397 29.4567 229.226 29.4987 229.054 29.5837C228.883 29.6667 228.722 29.7877 228.57 29.9447" fill="#231F20"/>
<path d="M235.046 30.7747C235.046 30.5307 235.016 30.3227 234.957 30.1517C234.897 29.9817 234.818 29.8417 234.721 29.7337C234.623 29.6247 234.512 29.5457 234.387 29.4977C234.262 29.4487 234.132 29.4237 233.997 29.4237C233.867 29.4237 233.739 29.4457 233.614 29.4897C233.489 29.5327 233.378 29.6057 233.281 29.7087C233.183 29.8117 233.106 29.9497 233.049 30.1237C232.992 30.2977 232.963 30.5137 232.963 30.7747C232.963 31.0137 232.993 31.2187 233.053 31.3927C233.113 31.5667 233.191 31.7087 233.289 31.8197C233.387 31.9307 233.499 32.0127 233.626 32.0637C233.754 32.1157 233.883 32.1417 234.013 32.1417C234.143 32.1417 234.271 32.1197 234.395 32.0757C234.52 32.0327 234.631 31.9587 234.729 31.8527C234.826 31.7467 234.904 31.6057 234.961 31.4297C235.018 31.2527 235.046 31.0347 235.046 30.7747ZM235.917 30.7337C235.917 31.0537 235.866 31.3417 235.766 31.5967C235.666 31.8507 235.529 32.0657 235.355 32.2387C235.182 32.4127 234.978 32.5457 234.745 32.6377C234.512 32.7297 234.26 32.7757 233.988 32.7757C233.717 32.7757 233.467 32.7327 233.236 32.6457C233.005 32.5587 232.805 32.4327 232.634 32.2677C232.463 32.1017 232.33 31.8967 232.236 31.6537C232.14 31.4097 232.093 31.1297 232.093 30.8147C232.093 30.4897 232.143 30.2027 232.243 29.9527C232.344 29.7037 232.481 29.4917 232.654 29.3187C232.828 29.1447 233.031 29.0137 233.264 28.9237C233.498 28.8347 233.75 28.7897 234.021 28.7897C234.292 28.7897 234.543 28.8317 234.774 28.9157C235.004 28.9997 235.205 29.1227 235.376 29.2857C235.547 29.4487 235.679 29.6517 235.774 29.8957C235.869 30.1397 235.917 30.4197 235.917 30.7337Z" fill="#231F20"/>
</g>
<mask id="mask1_67_72" style="mask-type:luminance" maskUnits="userSpaceOnUse" x="0" y="3" width="26" height="33">
<path d="M0.124199 35.1057H25.6472V3.48971H0.124199V35.1057Z" fill="white"/>
</mask>
<g mask="url(#mask1_67_72)">
<mask id="mask2_67_72" style="mask-type:luminance" maskUnits="userSpaceOnUse" x="0" y="3" width="26" height="33">
<path d="M0.124199 35.1057H25.6471V3.48971H0.124199V35.1057Z" fill="white"/>
</mask>
<g mask="url(#mask2_67_72)">
<mask id="mask3_67_72" style="mask-type:luminance" maskUnits="userSpaceOnUse" x="0" y="3" width="26" height="33">
<path d="M0.089798 35.1897V3.4897H25.6898V35.1897H0.089798Z" fill="white"/>
</mask>
<g mask="url(#mask3_67_72)">
<path d="M0.124199 3.48969V14.9977C0.124199 26.5277 12.8843 35.1067 12.8843 35.1067C12.8843 35.1067 25.6472 26.5277 25.6472 14.9977V3.48969" fill="white"/>
</g>
</g>
</g>
<mask id="mask4_67_72" style="mask-type:luminance" maskUnits="userSpaceOnUse" x="0" y="0" width="236" height="39">
<path d="M0 38.6207H235.916V2.28882e-05H0V38.6207Z" fill="white"/>
</mask>
<g mask="url(#mask4_67_72)">
<path d="M25.5234 3.61367V14.9977C25.5234 25.9077 13.8632 34.2737 12.8843 34.9557C11.9062 34.2737 0.2484 25.9077 0.2484 14.9977V3.61367H25.5234ZM0.000301361 3.36567V14.9977C0.000301361 26.4607 12.6875 35.1237 12.8152 35.2097L12.8843 35.2557L12.9535 35.2097C13.0824 35.1237 25.7714 26.4617 25.7714 14.9977V3.36567" fill="#231F20"/>
<path d="M5.4988 7.6317C5.4988 7.6317 5.03 7.6347 4.9711 7.6317C4.8718 7.6237 4.8238 7.25869 5.0281 7.24669L20.966 7.6517C21.1078 7.6577 21.0738 8.02469 20.8371 8.02469H20.4621C20.4621 8.02469 12.5961 14.0517 13.791 19.5157C14.0847 20.8577 15.7461 22.6427 15.7461 22.6427L15.3418 22.7187C15.3418 22.7187 14.264 21.3207 12.6859 20.7687C11.5238 20.3617 10.2328 21.1707 11.7269 22.7447L11.7878 22.8927C11.7878 22.8927 4.9121 18.4597 5.4988 7.6317Z" fill="#231F20"/>
<path d="M12.8136 7.52472L12.7234 5.12172L12.5074 5.06973L12.4746 7.50573L12.8136 7.52472Z" fill="#231F20"/>
<path d="M12.6464 6.60271C12.6464 6.60271 11.9156 6.54871 11.9304 6.01571C11.9414 5.56971 12.5035 5.52671 12.5035 5.52671L12.6464 5.31271C12.6464 5.31271 12.4023 5.29871 12.2414 5.41871C12.1035 5.51771 12.0113 5.62071 11.7984 5.54871C11.7984 5.54871 11.3695 5.32471 11.0382 5.31271C10.7425 5.30471 10.4066 5.53471 10.3566 5.57471C10.3566 5.57471 10.0925 5.78771 9.59719 5.38771C9.45659 5.26871 9.1804 5.14872 8.8414 5.19572C8.5695 5.23272 8.6105 5.41871 7.9914 5.64771C7.9914 5.64771 7.5425 5.76371 7.4734 5.59771C7.4734 5.59771 7.2734 5.93771 7.8503 5.99871C8.1593 6.02971 8.5445 5.7877 8.7882 5.7967C9.3644 5.8047 9.3433 5.98571 9.4953 6.12371C9.5656 6.19071 10.0793 6.52371 10.5586 6.28171C10.9425 6.08471 10.9593 6.08871 11.0875 6.09871C11.2105 6.11571 11.2304 6.3557 11.7945 6.3847C11.8543 6.3907 11.9605 6.76771 12.5734 6.79071" fill="#231F20"/>
<path d="M20.7043 16.8087C20.7043 16.8087 20.7211 16.6687 21.0711 16.5887C21.1003 16.5827 21.2761 16.6097 21.1531 16.8717L21.1273 16.9317C21.1273 16.9317 21.0324 17.1887 20.9863 17.9957L20.8691 20.6747C20.8691 20.7737 20.8441 21.2017 21.1703 21.7017C21.1703 21.7017 21.4312 22.1017 21.3851 22.7467C21.3851 22.7467 21.2164 24.1727 21.1961 24.2397C21.1761 24.3067 21.1312 24.6517 20.6781 24.6217C20.6781 24.6217 20.23 24.5517 20.2562 24.1677C20.2601 24.1017 20.7253 16.8817 20.7043 16.8087Z" fill="#231F20"/>
<path d="M20.5843 21.0377L15.905 21.9597C15.905 21.9597 15.7433 22.1007 15.6961 22.1967C15.6961 22.1967 15.5523 22.4557 15.7972 22.4347C15.8062 22.4347 15.8351 22.3897 15.8351 22.3897C15.8351 22.3897 15.905 22.1967 16.0472 22.1757L20.6312 21.2237" fill="#231F20"/>
<path d="M12.1777 20.5947L12.1539 22.7377L12.65 22.8577L12.6976 20.4467L12.1777 20.5947Z" fill="#231F20"/>
<path d="M20.3742 16.5037C20.3742 16.5037 20.18 23.2537 20.014 23.7507C20.014 23.7507 19.9839 24.5327 19.0031 24.7787C19.0031 24.7787 6.1773 24.7787 5.7492 24.7627C5.7492 24.7627 4.0929 24.6377 4.0703 23.0917C4.0703 23.0917 3.7293 14.9577 3.8 14.1967C3.8 14.1967 3.8929 14.0807 4.105 14.2667L4.5543 14.6007C4.5543 14.6007 4.6961 14.7307 4.575 15.0537C4.575 15.0537 3.964 17.7827 4.5543 19.3967C4.5543 19.3967 5.139 21.9597 6.9961 22.1967C6.9961 22.1967 11.1589 22.7917 17.3652 22.4597C17.3652 22.4597 19.4339 22.1517 19.8101 19.8947C19.8101 19.8947 20.2562 17.7347 19.7132 16.1687C19.7132 16.1687 19.6441 16.0257 20.023 16.1447C20.023 16.1447 20.3961 16.3127 20.3742 16.5037Z" fill="#231F20"/>
<path d="M4.2 18.0147C4.2 18.0147 4.3281 18.1227 4.482 18.0147C4.482 18.0147 4.3929 17.7287 4.5543 17.6917C4.5543 17.6917 5.3441 17.6647 5.466 17.6487C5.466 17.6487 5.657 17.7177 5.473 17.9297C5.473 17.9297 4.4121 19.1007 4.357 19.1007L3.989 19.1157C3.989 19.1157 3.0742 18.2117 2.823 17.9057C2.823 17.9057 2.648 17.7287 2.8941 17.7117H3.564C3.564 17.7117 3.7062 17.7287 3.7242 17.8537C3.741 17.9817 3.7242 18.0297 3.7242 18.0297C3.7242 18.0297 3.805 18.1387 3.9703 18.0847C4.0882 18.0427 4.2 18.0147 4.2 18.0147Z" fill="#231F20"/>
<path d="M36.2218 28.9207C35.3609 28.9107 34.6968 28.9017 34.1289 28.8817V30.7957C34.6586 30.7857 35.2656 30.7767 36.0418 30.7667C36.2687 30.7667 36.2789 30.8717 36.2789 31.0727V31.2067C36.2789 31.4077 36.2687 31.5127 36.0418 31.5127C35.2656 31.5027 34.6586 31.4937 34.1289 31.4837V34.2107C34.1289 34.4297 34.0707 34.4877 33.8918 34.4877H33.4937C33.2566 34.4877 33.1996 34.4497 33.1996 34.2107V28.3467C33.1996 28.1077 33.3039 28.0977 33.4937 28.0977H36.2218C36.3738 28.0977 36.4586 28.1257 36.4586 28.3467V28.6147C36.4586 28.8147 36.4488 28.9207 36.2218 28.9207Z" fill="#231F20"/>
<path d="M42.0562 28.4617L40.1812 32.0007V34.2107C40.1812 34.4307 40.1152 34.4877 39.9445 34.4877H39.5472C39.3003 34.4877 39.2535 34.4497 39.2535 34.2107V32.0877L37.3394 28.4617C37.2921 28.3757 37.2824 28.3087 37.2824 28.2517C37.2824 28.1457 37.3582 28.0987 37.4824 28.0987H37.9832C38.1914 28.0987 38.2304 28.1557 38.3062 28.2987L39.7164 31.0447L41.1761 28.2987C41.2511 28.1557 41.2894 28.0987 41.4972 28.0987H41.9054C42.0285 28.0987 42.1132 28.1457 42.1132 28.2517C42.1222 28.3087 42.1043 28.3757 42.0562 28.4617Z" fill="#231F20"/>
<path d="M46.1867 34.4877H43.5437C43.3066 34.4877 43.2496 34.4497 43.2496 34.2107V28.3467C43.2496 28.1077 43.3535 28.0977 43.5437 28.0977H43.9418C44.1507 28.0977 44.1785 28.1847 44.1785 28.3467V33.6937C44.7277 33.6837 45.3625 33.6747 46.1867 33.6647C46.4148 33.6647 46.4148 33.7707 46.4148 33.9707V34.2387C46.4148 34.4597 46.3386 34.4877 46.1867 34.4877Z" fill="#231F20"/>
<path d="M51.7089 34.4877H51.066C50.857 34.4877 50.7718 34.4497 50.6191 34.2777L48.3839 31.8477V34.2107C48.3839 34.4297 48.3281 34.4877 48.1468 34.4877H47.75C47.5128 34.4877 47.4558 34.4497 47.4558 34.2107V28.3467C47.4558 28.1077 47.5601 28.0977 47.75 28.0977H48.1468C48.3558 28.0977 48.3839 28.1847 48.3839 28.3467V30.9877L50.6191 28.3087C50.7718 28.1257 50.8281 28.0977 51.0179 28.0977H51.5011C51.7089 28.0977 51.7191 28.2417 51.6152 28.3657L49.18 31.3027L51.775 34.1437C51.9558 34.3347 51.8992 34.4877 51.7089 34.4877Z" fill="#231F20"/>
<path d="M56.2198 34.4877H53.3105C53.0734 34.4877 53.0175 34.4497 53.0175 34.2107V28.3467C53.0175 28.1077 53.1214 28.0977 53.3105 28.0977H56.2198C56.3698 28.0977 56.4558 28.1257 56.4558 28.3467V28.6147C56.4558 28.8157 56.4468 28.9207 56.2198 28.9207C55.3568 28.9107 54.5328 28.9017 53.9453 28.8827V30.8047C54.5038 30.7857 55.1578 30.7767 56.0108 30.7667C56.2378 30.7667 56.2468 30.8717 56.2468 31.0727V31.2067C56.2468 31.4077 56.2378 31.5127 56.0108 31.5127C55.1578 31.5027 54.5038 31.4937 53.9453 31.4747V33.7037C54.5328 33.6837 55.3568 33.6747 56.2198 33.6647C56.4468 33.6647 56.4558 33.7707 56.4558 33.9707V34.2387C56.4558 34.4597 56.3698 34.4877 56.2198 34.4877Z" fill="#231F20"/>
<path d="M61.0968 33.9037C60.7848 34.5447 59.9408 34.5727 59.2978 34.5727C58.7668 34.5727 58.2468 34.5257 57.9328 34.4977C57.6868 34.4777 57.6018 34.4597 57.6018 34.3157V33.9807C57.6018 33.7607 57.6118 33.6647 57.7908 33.6647C58.3118 33.6647 58.1898 33.7417 59.4388 33.7417C60.1118 33.7417 60.3588 33.6747 60.3588 32.9277C60.3588 32.2207 60.3488 32.0677 59.9228 31.8857C59.5348 31.7137 59.1368 31.5417 58.7478 31.3597C57.8198 30.9297 57.6678 30.7767 57.6678 29.6567C57.6678 29.1977 57.6678 28.7007 58.0278 28.3747C58.4068 28.0217 58.9558 28.0317 59.7428 28.0317C60.1688 28.0317 60.3958 28.0497 60.8038 28.0787C61.0398 28.0977 61.1348 28.1167 61.1348 28.2607V28.5957C61.1348 28.8157 61.1248 28.9107 60.9458 28.9107C60.5758 28.9107 60.6708 28.8637 59.9228 28.8637C59.7518 28.8637 59.4208 28.8537 59.2498 28.8537C58.5778 28.8537 58.5678 29.1407 58.5678 29.7527C58.5678 30.2027 58.5958 30.3077 58.9948 30.4987C59.2498 30.6137 59.5158 30.7287 59.7708 30.8437C60.9828 31.3887 61.2588 31.5227 61.2588 32.5837C61.2588 32.9477 61.2588 33.5787 61.0968 33.9037Z" fill="#231F20"/>
<path d="M66.9228 34.4877H66.2788C66.0698 34.4877 65.9848 34.4497 65.8338 34.2777L63.5978 31.8477V34.2107C63.5978 34.4297 63.5408 34.4877 63.3608 34.4877H62.9638C62.7268 34.4877 62.6698 34.4497 62.6698 34.2107V28.3467C62.6698 28.1077 62.7728 28.0977 62.9638 28.0977H63.3608C63.5698 28.0977 63.5978 28.1847 63.5978 28.3467V30.9877L65.8338 28.3087C65.9848 28.1257 66.0428 28.0977 66.2318 28.0977H66.7148C66.9228 28.0977 66.9338 28.2417 66.8288 28.3657L64.3948 31.3027L66.9898 34.1437C67.1698 34.3347 67.1128 34.4877 66.9228 34.4877Z" fill="#231F20"/>
<path d="M71.9348 29.4947C71.6868 28.9297 71.1668 28.7487 70.6188 28.7487C70.0688 28.7487 69.5468 28.9297 69.3008 29.4947C69.1028 29.9537 69.0738 30.7957 69.0738 31.3017C69.0738 31.8087 69.1028 32.6417 69.3008 33.1007C69.5368 33.6647 70.0598 33.8467 70.6188 33.8467C71.1758 33.8467 71.6868 33.6647 71.9348 33.1007C72.1328 32.6417 72.1608 31.8087 72.1608 31.3017C72.1608 30.7957 72.1328 29.9537 71.9348 29.4947ZM72.5208 33.8367C72.0488 34.4687 71.4328 34.6887 70.6188 34.6887C69.8028 34.6887 69.1868 34.4687 68.7128 33.8367C68.1738 33.1007 68.0988 32.2017 68.0988 31.3017C68.0988 30.4037 68.1738 29.4947 68.7128 28.7577C69.2058 28.0887 69.8508 27.9157 70.6188 27.9157C71.3848 27.9157 72.0188 28.0887 72.5208 28.7577C73.0608 29.4947 73.1368 30.4037 73.1368 31.3017C73.1368 32.2017 73.0608 33.1007 72.5208 33.8367Z" fill="#231F20"/>
<path d="M80.3938 34.4877H79.9958C79.8248 34.4877 79.7678 34.4297 79.7588 34.2107L79.4748 29.3027C79.3988 29.5527 79.2848 30.0007 79.1908 30.2687C78.8018 31.4077 78.3758 32.6607 78.0818 33.4447C78.0068 33.6547 77.9408 33.7327 77.7218 33.7327H77.4768C77.2578 33.7327 77.2018 33.6547 77.1258 33.4447C76.8318 32.6607 76.3868 31.4077 75.9988 30.2687C75.9038 30.0007 75.7988 29.5527 75.7338 29.3027L75.4298 34.2107C75.4198 34.4297 75.3728 34.4877 75.1928 34.4877H74.7948C74.5578 34.4877 74.4828 34.4497 74.5018 34.2107L74.9848 28.3467C75.0038 28.1077 75.0888 28.0977 75.2788 28.0977H75.8088C76.0168 28.0977 76.0648 28.1457 76.1218 28.2987C76.5088 29.3407 77.1438 31.1877 77.5998 32.5267C78.0538 31.1877 78.6888 29.3407 79.0668 28.2987C79.1238 28.1457 79.1818 28.0977 79.3898 28.0977H79.9198C80.1088 28.0977 80.1858 28.1077 80.2048 28.3467L80.6868 34.2107C80.7068 34.4497 80.6398 34.4877 80.3938 34.4877Z" fill="#231F20"/>
<path d="M87.9438 34.4877H87.5458C87.3758 34.4877 87.3188 34.4297 87.3098 34.2107L87.0238 29.3027C86.9488 29.5527 86.8358 30.0007 86.7398 30.2687C86.3528 31.4077 85.9258 32.6607 85.6328 33.4447C85.5558 33.6547 85.4888 33.7327 85.2718 33.7327H85.0258C84.8078 33.7327 84.7508 33.6547 84.6758 33.4447C84.3828 32.6607 83.9368 31.4077 83.5488 30.2687C83.4538 30.0007 83.3488 29.5527 83.2848 29.3027L82.9798 34.2107C82.9698 34.4297 82.9238 34.4877 82.7438 34.4877H82.3448C82.1078 34.4877 82.0328 34.4497 82.0528 34.2107L82.5348 28.3467C82.5538 28.1077 82.6388 28.0977 82.8278 28.0977H83.3598C83.5668 28.0977 83.6138 28.1457 83.6718 28.2987C84.0598 29.3407 84.6938 31.1877 85.1488 32.5267C85.6038 31.1877 86.2378 29.3407 86.6168 28.2987C86.6738 28.1457 86.7308 28.0977 86.9398 28.0977H87.4698C87.6598 28.0977 87.7348 28.1077 87.7538 28.3467L88.2368 34.2107C88.2558 34.4497 88.1898 34.4877 87.9438 34.4877Z" fill="#231F20"/>
<path d="M94.2718 32.9097C94.1958 33.4157 94.0068 33.8467 93.7418 34.1337C93.4188 34.4777 92.8988 34.6317 91.9888 34.6317C91.0888 34.6317 90.5678 34.4777 90.2458 34.1337C89.9808 33.8467 89.7918 33.4157 89.7158 32.9097C89.6198 32.3167 89.6018 31.8287 89.6018 30.4697V28.3467C89.6018 28.1077 89.7058 28.0987 89.8958 28.0987H90.2928C90.5018 28.0987 90.5298 28.1847 90.5298 28.3467V31.3117C90.5298 32.4307 90.5768 32.8137 90.7478 33.1967C90.9368 33.6267 91.2868 33.7897 91.9888 33.7897C92.6998 33.7897 93.0508 33.6267 93.2388 33.1967C93.4088 32.8137 93.4568 32.4307 93.4568 31.3117V28.3467C93.4568 28.1077 93.5708 28.0987 93.7598 28.0987H94.1578C94.3658 28.0987 94.3848 28.1847 94.3848 28.3467V30.4697C94.3848 31.8287 94.3658 32.3167 94.2718 32.9097Z" fill="#231F20"/>
<path d="M100.372 34.4877H100.06C99.8988 34.4877 99.7848 34.4977 99.6718 34.3447C98.9038 33.2337 97.6448 31.2357 96.7248 29.7907V34.2107C96.7248 34.4297 96.6598 34.4877 96.4878 34.4877H96.0918C95.8448 34.4877 95.7968 34.4497 95.7968 34.2107V28.3467C95.7968 28.1077 95.8918 28.0977 96.0918 28.0977H96.3558C96.5538 28.0977 96.6108 28.1077 96.6968 28.2317C97.4738 29.3707 98.6398 31.2157 99.6808 32.8047V28.3467C99.6808 28.1077 99.7758 28.0977 99.9658 28.0977H100.372C100.581 28.0977 100.61 28.1847 100.61 28.3467V34.2107C100.61 34.4297 100.544 34.4877 100.372 34.4877Z" fill="#231F20"/>
<path d="M105.346 34.4877H102.437C102.201 34.4877 102.144 34.4497 102.144 34.2107V28.3467C102.144 28.1077 102.249 28.0977 102.437 28.0977H105.346C105.497 28.0977 105.583 28.1257 105.583 28.3467V28.6147C105.583 28.8157 105.574 28.9207 105.346 28.9207C104.485 28.9107 103.66 28.9017 103.072 28.8827V30.8047C103.631 30.7857 104.285 30.7767 105.137 30.7667C105.364 30.7667 105.374 30.8717 105.374 31.0727V31.2067C105.374 31.4077 105.364 31.5127 105.137 31.5127C104.285 31.5027 103.631 31.4937 103.072 31.4747V33.7037C103.66 33.6837 104.485 33.6747 105.346 33.6647C105.574 33.6647 105.583 33.7707 105.583 33.9707V34.2387C105.583 34.4597 105.497 34.4877 105.346 34.4877Z" fill="#231F20"/>
<path d="M43.6113 4.8057C43.5621 5.36271 43.5503 7.5197 43.5832 10.1537L43.5902 8.9547V8.9557C43.6293 12.0937 43.7293 15.9087 43.9031 18.5197C43.9031 18.5197 37.9441 11.5577 35.4613 7.7897C35.4613 7.7897 35.3871 6.72169 35.3742 5.93369C35.3613 5.1427 34.9351 4.9107 34.9351 4.9107C34.9351 4.9107 33.6882 4.0657 33.1543 3.7557C33.1543 3.7557 33.1461 14.0997 33.1461 19.3177C33.1461 23.5177 35.7812 23.7397 35.7812 23.7397L35.6293 11.5757C38.6941 15.8677 44.0531 24.5267 46.1152 24.0997C46.1152 24.0997 46.3683 12.9987 46.4734 9.5367C46.5781 6.0747 43.6113 4.8057 43.6113 4.8057Z" fill="#231F20"/>
<path d="M88.1628 16.3087C88.1628 16.3087 87.5378 19.1957 88.5858 21.4917C89.4998 20.3437 89.6858 17.0717 91.2698 17.3987C92.8518 17.7257 91.9258 23.4897 95.1268 24.2287C95.6918 16.9687 93.1198 10.1107 88.1628 16.3087Z" fill="#231F20"/>
<path d="M56.9368 19.9437C57.0018 22.2477 57.7568 24.0997 57.7568 24.0997C59.5098 22.8117 58.3828 19.0507 59.2058 18.1047C60.0308 17.1577 60.8728 17.3697 61.0598 17.4777C61.3318 16.7857 60.8858 15.4587 60.3378 15.1377C59.7908 14.8157 58.9328 14.7067 58.1708 15.3117C57.4108 15.9157 56.6688 16.5947 56.2268 16.7417C56.2268 16.7417 56.8718 17.6407 56.9368 19.9437Z" fill="#231F20"/>
<path d="M75.6238 4.92567C75.6418 4.41267 75.0628 4.17867 75.0628 4.17867C75.0628 4.17867 74.2338 3.79967 73.3208 3.48967C73.3208 3.48967 73.2758 16.3017 73.1138 20.9077C72.9848 24.6037 75.2208 23.9347 75.2208 23.9347L75.4388 12.5837C75.4388 12.5837 75.5958 5.72467 75.6238 4.92567Z" fill="#231F20"/>
<path d="M68.4308 18.7277C67.8508 20.0857 67.1648 21.1127 65.3038 22.3507C64.5608 21.5717 64.4308 19.1057 64.9148 18.2417C65.4008 17.3787 67.3398 16.5957 68.4008 16.8057C68.5628 16.8537 68.5328 18.4367 68.4308 18.7277ZM64.3538 23.9387C64.3558 23.9397 64.9378 24.4197 65.5238 24.1327C66.2008 23.7517 67.4398 22.9177 68.5258 21.4367C68.9938 23.9037 70.6448 23.8277 70.6448 23.8277L70.8628 11.9087C70.8628 11.9087 70.9878 7.94071 70.9968 7.14071C71.0058 6.22171 70.5058 5.97971 70.5058 5.97971C70.5058 5.97971 69.0878 5.14571 68.5538 4.83471C68.5538 4.83471 68.5788 9.2887 68.5058 14.8097C66.1948 14.6917 62.4108 15.8277 62.3198 18.4617C62.2008 21.8507 63.5188 23.2247 64.3538 23.9387Z" fill="#231F20"/>
<path d="M103.393 16.8607C103.505 16.9017 103.455 18.4477 103.351 18.8257C102.751 20.3727 102.127 21.0337 100.811 21.9917C99.9608 21.4617 98.7818 20.5427 99.2678 19.6787C99.7538 18.8147 102.533 16.9187 103.393 16.8607ZM101.084 24.1677C101.065 24.1867 101.094 24.1587 101.084 24.1677C101.65 23.6657 102.535 22.7577 103.389 21.4197C103.782 24.1707 105.574 23.6567 105.574 23.6567L105.608 10.6657C105.608 10.6657 105.66 8.02267 105.67 7.22267C105.679 6.41967 105.18 6.06167 105.18 6.06167C105.18 6.06167 105.049 5.89168 103.421 5.42968C103.421 5.42968 103.474 9.77168 103.417 14.8647C101.231 15.3157 96.6998 17.0427 96.5978 19.9727C96.5198 22.1877 98.5858 23.3967 99.7128 24.2107C99.7218 24.2167 100.432 24.6787 101.084 24.1677Z" fill="#231F20"/>
<path d="M55.0628 20.2447C55.0978 19.1597 54.8548 17.8987 54.0968 16.3337C53.3378 14.7687 51.4679 14.4827 51.4679 14.4827C51.4679 18.4197 54.2128 18.1877 53.6867 21.4247C53.6867 21.4247 53.216 21.8837 51.7168 21.7947C49.6339 21.6737 50.1929 17.7807 50.6058 16.4397C45.9668 17.6287 46.8269 25.4237 53.4859 24.0997C54.5678 23.1307 55.0158 21.7427 55.0628 20.2447Z" fill="#231F20"/>
<path d="M78.2288 21.9287C78.2878 20.2747 80.9058 17.1427 83.6108 16.8077C82.0308 18.1527 81.1608 22.2607 78.2288 21.9287ZM76.8518 21.4477C76.8518 21.4477 76.5718 22.4657 77.0558 22.8347C78.6468 24.1347 82.7328 23.7997 83.9378 19.8507C84.0378 22.1057 84.6948 24.6537 87.4608 24.3087C87.6238 24.2817 87.0378 21.8027 86.3878 19.4077C85.7358 17.0117 85.4108 16.0457 85.0848 15.2197C84.7598 14.3947 83.8428 14.4277 83.8398 14.4287C79.6588 14.9397 77.8288 18.3057 76.8518 21.4477Z" fill="#231F20"/>
<path d="M122.29 -5.4533V44.0747" stroke="#231F20" stroke-width="0.27" stroke-miterlimit="10"/>
</g>
</svg>
