<svg width="109" height="27" viewBox="0 0 109 27" fill="none" xmlns="http://www.w3.org/2000/svg">
<path d="M62.357 0.382999C64.6793 0.382999 66.2144 2.252 66.2144 5.055C66.2144 7.858 64.6793 9.727 62.357 9.727C60.0478 9.727 58.5117 7.858 58.5117 5.055C58.5117 2.252 60.0468 0.382999 62.357 0.382999ZM62.357 1.612C60.7957 1.612 59.8412 2.918 59.8412 5.055C59.8412 7.193 60.7957 8.498 62.357 8.498C63.9183 8.498 64.8859 7.192 64.8859 5.055C64.8849 2.917 63.9173 1.612 62.357 1.612Z" fill="#1F1E1E"/>
<path d="M68.036 7.001C68.2557 8.14 68.797 8.614 69.9329 8.614C70.7715 8.614 71.2876 8.294 71.2876 7.782C71.2876 7.18 70.836 6.924 69.5328 6.528C67.8818 6.067 67.1843 5.568 67.1843 4.531C67.1843 3.405 68.2295 2.56 69.6356 2.56C71.0165 2.56 72.0869 3.341 72.358 4.57L71.1707 4.877C70.9388 4.07 70.4218 3.674 69.6356 3.674C68.8998 3.674 68.4099 4.007 68.4099 4.506C68.4099 4.928 68.797 5.146 69.945 5.466C71.7381 5.991 72.5253 6.554 72.5253 7.732C72.5253 8.948 71.4932 9.729 69.9319 9.729C68.164 9.729 67.0422 8.846 66.8486 7.259L68.036 7.001Z" fill="#1F1E1E"/>
<path d="M73.5264 0.190998H74.7903V9.535H73.5264V0.190998Z" fill="#1F1E1E"/>
<path d="M79.1172 2.559C81.0656 2.559 82.382 4.005 82.382 6.143C82.382 8.281 81.0656 9.727 79.1172 9.727C77.1689 9.727 75.8525 8.281 75.8525 6.143C75.8535 4.005 77.1689 2.559 79.1172 2.559ZM79.1172 3.724C77.8785 3.724 77.1175 4.658 77.1175 6.143C77.1175 7.628 77.8785 8.562 79.1172 8.562C80.356 8.562 81.117 7.628 81.117 6.143C81.117 4.658 80.356 3.724 79.1172 3.724Z" fill="#1F1E1E"/>
<path d="M87.1309 0.574997H88.6014L92.3691 7.385H92.3953V0.574997H93.7238V9.535H92.2532L88.4855 2.725H88.4593V9.535H87.1309V0.574997Z" fill="#1F1E1E"/>
<path d="M97.1552 9.023L94.5234 2.751H95.8529L97.7881 7.577H97.8143L99.7758 2.751H101.104L97.0403 12.415H95.737L97.1552 9.023Z" fill="#1F1E1E"/>
<path d="M104.334 2.559C106.192 2.559 107.431 3.954 107.431 5.99V6.515H102.437C102.45 7.117 102.631 7.629 102.979 8.025C103.328 8.422 103.78 8.614 104.334 8.614C105.199 8.614 105.715 8.281 106.282 7.372L107.263 8.025C106.656 9.151 105.651 9.727 104.347 9.727C102.45 9.727 101.16 8.281 101.16 6.143C101.16 4.031 102.463 2.559 104.334 2.559ZM106.18 5.554C106.128 4.44 105.419 3.672 104.334 3.672C103.302 3.672 102.49 4.53 102.463 5.554H106.18Z" fill="#1F1E1E"/>
<path d="M59.0273 14.774H60.3558V18.55H64.059V14.774H65.3884V23.734H64.059V19.715H60.3558V23.734H59.0273V14.774Z" fill="#1F1E1E"/>
<path d="M69.9067 23.926C69.1709 23.926 68.5258 23.721 67.9714 23.324L67.533 23.887L67.0169 23.49L67.4947 22.888C66.9403 22.261 66.6299 21.365 66.6299 20.341C66.6299 18.203 67.9714 16.757 69.9067 16.757C70.6425 16.757 71.2876 16.962 71.8288 17.359L72.2935 16.77L72.8226 17.18L72.3197 17.82C72.8489 18.447 73.1583 19.318 73.1583 20.342C73.1583 22.48 71.8419 23.926 69.9067 23.926ZM71.1192 18.268C70.7836 17.999 70.3834 17.871 69.9067 17.871C68.6548 17.871 67.8424 18.818 67.8424 20.341C67.8424 20.968 67.9714 21.506 68.2426 21.928L71.1192 18.268ZM71.5587 18.78L68.6941 22.415C69.0298 22.684 69.4299 22.812 69.9067 22.812C71.1585 22.812 71.9326 21.865 71.9326 20.341C71.9326 19.715 71.8036 19.203 71.5587 18.78Z" fill="#1F1E1E"/>
<path d="M76.1591 23.222L73.5273 16.95H74.8568L76.7921 21.776H76.8183L78.7797 16.95H80.1082L76.0442 26.614H74.7409L76.1591 23.222Z" fill="#1F1E1E"/>
<path d="M81.3475 21.199C81.5672 22.338 82.1085 22.812 83.2444 22.812C84.083 22.812 84.5991 22.492 84.5991 21.98C84.5991 21.378 84.1476 21.122 82.8443 20.726C81.1933 20.265 80.4958 19.766 80.4958 18.729C80.4958 17.603 81.541 16.758 82.9471 16.758C84.328 16.758 85.3984 17.539 85.6695 18.768L84.4822 19.075C84.2504 18.268 83.7343 17.872 82.9471 17.872C82.2113 17.872 81.7215 18.205 81.7215 18.704C81.7215 19.126 82.1085 19.344 83.2565 19.664C85.0497 20.189 85.8369 20.752 85.8369 21.93C85.8369 23.146 84.8047 23.927 83.2434 23.927C81.4755 23.927 80.3537 23.044 80.1602 21.457L81.3475 21.199Z" fill="#1F1E1E"/>
<path d="M86.8223 14.39H88.0862V19.817H88.1124L90.7572 16.95H92.4607L89.9449 19.6L92.6159 23.735H91.1453L89.1062 20.471H89.08L88.0862 21.546V23.735H86.8223V14.39Z" fill="#1F1E1E"/>
<path d="M95.9141 16.758C97.8625 16.758 99.1788 18.204 99.1788 20.342C99.1788 22.48 97.8625 23.926 95.9141 23.926C93.9658 23.926 92.6494 22.48 92.6494 20.342C92.6494 18.204 93.9658 16.758 95.9141 16.758ZM95.9141 17.923C94.6754 17.923 93.9144 18.857 93.9144 20.342C93.9144 21.827 94.6754 22.761 95.9141 22.761C97.1529 22.761 97.9139 21.827 97.9139 20.342C97.9139 18.857 97.1529 17.923 95.9141 17.923Z" fill="#1F1E1E"/>
<path d="M100.261 14.39H101.525V23.734H100.261V14.39Z" fill="#1F1E1E"/>
<path d="M105.761 16.758C107.619 16.758 108.857 18.153 108.857 20.189V20.714H103.864C103.877 21.316 104.057 21.828 104.406 22.224C104.755 22.621 105.207 22.813 105.761 22.813C106.626 22.813 107.142 22.48 107.709 21.571L108.69 22.224C108.083 23.35 107.077 23.926 105.774 23.926C103.877 23.926 102.587 22.48 102.587 20.342C102.587 18.23 103.89 16.758 105.761 16.758ZM107.605 19.753C107.554 18.639 106.844 17.871 105.76 17.871C104.728 17.871 103.915 18.729 103.889 19.753H107.605Z" fill="#1F1E1E"/>
<path d="M25.6904 23.742V0.465H30.6112L33.3407 11.834L33.1784 7.448V0.465H38.0689V23.742H33.1119L30.4187 11.848L30.5809 16.234V23.742H25.6904Z" fill="#1F1E1E"/>
<path d="M39.7334 23.742V0.465H44.7499V9.481H46.9502V0.465H51.9667V23.742H46.9502V14.398H44.7499V23.742H39.7334Z" fill="#1F1E1E"/>
<path d="M12.2001 4.83C16.2429 4.83 19.5318 8.093 19.5318 12.104C19.5318 16.115 16.2429 19.378 12.2001 19.378C8.15723 19.378 4.86833 16.115 4.86833 12.104C4.86833 8.093 8.15723 4.83 12.2001 4.83ZM12.2001 0C5.46201 0 0 5.419 0 12.104C0 18.789 5.46201 24.208 12.2001 24.208C18.9381 24.208 24.4001 18.789 24.4001 12.104C24.4001 5.419 18.9381 0 12.2001 0Z" fill="#1F1E1E"/>
</svg>
