<?xml version="1.0" standalone="no"?>
<!DOCTYPE svg PUBLIC "-//W3C//DTD SVG 20010904//EN"
 "http://www.w3.org/TR/2001/REC-SVG-20010904/DTD/svg10.dtd">
<svg version="1.0" xmlns="http://www.w3.org/2000/svg"
 width="770.000000pt" height="142.000000pt" viewBox="0 0 770.000000 142.000000"
 preserveAspectRatio="xMidYMid meet">

<g transform="translate(0.000000,142.000000) scale(0.100000,-0.100000)"
fill="#97262C" stroke="none">
<path d="M7530 1218 l0 -192 -27 27 c-81 77 -288 96 -402 38 -87 -46 -144
-144 -160 -281 -35 -283 75 -466 293 -487 120 -11 267 32 314 92 23 29 24 28
42 -37 13 -48 13 -48 56 -48 l44 0 0 540 0 540 -80 0 -80 0 0 -192z m-133
-239 c57 -15 104 -61 122 -120 17 -54 18 -209 2 -266 -14 -52 -55 -101 -98
-119 -18 -8 -65 -14 -106 -14 -100 0 -152 26 -187 95 -22 44 -25 61 -25 165 0
103 3 120 25 164 14 28 37 59 51 69 49 35 136 45 216 26z"/>
<path d="M3708 1381 c-33 -27 -45 -79 -28 -122 17 -40 37 -49 113 -49 90 0
112 18 112 94 0 75 -15 89 -103 94 -57 3 -71 1 -94 -17z"/>
<path d="M0 1240 l0 -70 140 0 140 0 0 -420 0 -420 85 0 85 0 0 420 0 419 138
3 137 3 3 68 3 67 -366 0 -365 0 0 -70z"/>
<path d="M3090 820 l0 -490 270 0 270 0 0 70 0 70 -185 0 -185 0 0 420 0 420
-85 0 -85 0 0 -490z"/>
<path d="M903 1120 c-120 -17 -221 -87 -263 -184 -63 -141 -46 -376 34 -485
66 -89 157 -125 316 -125 148 1 211 22 286 99 72 73 98 152 98 295 0 120 -17
189 -63 263 -68 105 -232 161 -408 137z m184 -145 c81 -34 114 -92 121 -215 6
-117 -10 -192 -55 -240 -42 -47 -88 -64 -175 -63 -84 0 -142 31 -178 95 -20
35 -25 60 -28 141 -7 158 26 239 112 278 51 23 152 25 203 4z"/>
<path d="M1770 1120 c-67 -11 -119 -36 -155 -74 l-32 -35 -19 55 -18 54 -43 0
-43 0 0 -395 0 -395 79 0 79 0 4 262 c3 232 5 267 22 301 29 58 69 81 148 85
l68 4 0 74 c0 83 4 80 -90 64z"/>
<path d="M2145 1119 c-83 -12 -181 -63 -222 -117 -49 -65 -73 -155 -73 -276 0
-260 106 -384 346 -403 205 -16 357 67 389 215 l7 32 -86 0 -85 0 -17 -35
c-30 -63 -66 -80 -170 -80 -81 0 -95 3 -131 27 -43 28 -72 79 -80 139 l-6 39
287 0 286 0 0 70 c0 224 -98 360 -281 390 -72 11 -79 11 -164 -1z m189 -148
c45 -28 74 -76 82 -135 l7 -46 -202 0 c-199 0 -201 0 -201 21 0 74 59 159 123
178 51 16 151 7 191 -18z"/>
<path d="M5073 1120 c-70 -10 -146 -40 -181 -73 -36 -33 -63 -93 -69 -153 l-6
-54 80 0 80 0 6 41 c10 78 65 112 182 112 119 0 177 -38 194 -126 10 -56 27
-50 -184 -71 -249 -25 -339 -66 -370 -169 -37 -124 22 -238 146 -282 134 -48
341 -14 425 70 14 14 27 25 29 23 2 -2 10 -25 18 -53 l14 -50 48 -3 47 -3 -5
288 c-2 175 -9 302 -16 324 -26 84 -85 139 -175 164 -68 18 -187 25 -263 15z
m292 -477 c-18 -128 -97 -193 -231 -193 -95 0 -159 36 -170 97 -8 45 14 77 68
97 39 15 227 42 307 45 l33 1 -7 -47z"/>
<path d="M5913 1119 c-70 -9 -146 -39 -181 -72 -36 -33 -63 -93 -69 -153 l-6
-54 80 0 80 0 6 41 c10 78 65 112 182 112 119 0 177 -38 194 -126 10 -56 27
-50 -184 -71 -291 -29 -379 -84 -379 -236 0 -141 91 -222 264 -237 114 -9 256
32 316 92 14 14 27 25 29 23 2 -2 10 -25 18 -53 l14 -50 48 -3 47 -3 -4 288
c-4 267 -6 292 -26 344 -39 98 -111 143 -254 159 -91 11 -87 11 -175 -1z m292
-476 c-18 -128 -97 -193 -231 -193 -95 0 -159 36 -170 97 -8 45 14 77 68 97
39 15 227 42 307 45 l33 1 -7 -47z"/>
<path d="M6812 1119 c-67 -11 -122 -39 -156 -79 -18 -22 -28 -27 -31 -18 -3 7
-11 31 -18 53 -13 37 -17 40 -55 43 l-42 3 0 -395 0 -396 79 0 80 0 3 268 c3
246 5 270 23 301 33 56 67 75 145 79 l70 4 0 74 c0 84 6 80 -98 63z"/>
<path d="M3710 725 l0 -395 80 0 80 0 0 395 0 395 -80 0 -80 0 0 -395z"/>
<path d="M4305 1110 c-209 -18 -301 -103 -299 -275 0 -81 25 -138 74 -177 l31
-24 -41 -19 c-86 -39 -106 -114 -49 -180 39 -44 106 -65 323 -100 87 -14 174
-33 193 -42 59 -28 64 -90 10 -126 -56 -37 -236 -46 -315 -16 -43 16 -72 50
-78 91 l-7 38 -85 0 -84 0 4 -53 c6 -78 35 -126 98 -164 73 -44 143 -58 295
-57 141 1 223 20 289 65 92 63 118 192 55 273 -44 56 -130 84 -362 116 -163
23 -194 32 -204 56 -13 35 24 46 129 40 110 -7 230 7 291 33 111 48 163 181
122 317 -8 28 -26 61 -40 74 l-26 25 48 16 c46 15 48 17 51 57 l3 42 -173 -1
c-95 -1 -209 -5 -253 -9z m173 -154 c45 -23 66 -75 59 -143 -10 -99 -57 -133
-184 -133 -128 0 -183 46 -183 153 0 106 60 150 195 144 50 -2 92 -10 113 -21z"/>
</g>
</svg>
