<svg width="451" height="430" viewBox="0 0 451 430" fill="none" xmlns="http://www.w3.org/2000/svg">
<path d="M4.05312e-05 423.833C4.05312e-05 426.779 2.38786 429.167 5.33337 429.167C8.27889 429.167 10.6667 426.779 10.6667 423.833C10.6667 420.888 8.27889 418.5 5.33337 418.5C2.38786 418.5 4.05312e-05 420.888 4.05312e-05 423.833ZM4.05312e-05 303.833C4.05312e-05 306.779 2.38786 309.167 5.33337 309.167C8.27889 309.167 10.6667 306.779 10.6667 303.833C10.6667 300.888 8.27889 298.5 5.33337 298.5C2.38786 298.5 4.05312e-05 300.888 4.05312e-05 303.833ZM5.33337 423.833H6.33337V303.833H5.33337H4.33337V423.833H5.33337Z" fill="black"/>
<path d="M41.0004 371.396C41.0346 374.341 43.4501 376.701 46.3954 376.666C49.3407 376.632 51.7006 374.217 51.6663 371.271C51.6321 368.326 49.2167 365.966 46.2714 366.001C43.326 366.035 40.9662 368.45 41.0004 371.396ZM40.0004 285.396C40.0346 288.341 42.4501 290.701 45.3954 290.666C48.3407 290.632 50.7006 288.217 50.6663 285.271C50.6321 282.326 48.2167 279.966 45.2714 280.001C42.326 280.035 39.9662 282.45 40.0004 285.396ZM46.3334 371.333L47.3333 371.322L46.3333 285.322L45.3334 285.333L44.3334 285.345L45.3334 371.345L46.3334 371.333Z" fill="black"/>
<path d="M80 334.333C80 337.279 82.3879 339.667 85.3334 339.667C88.2789 339.667 90.6667 337.279 90.6667 334.333C90.6667 331.388 88.2789 329 85.3334 329C82.3879 329 80 331.388 80 334.333ZM80 269.333C80 272.279 82.3879 274.667 85.3334 274.667C88.2789 274.667 90.6667 272.279 90.6667 269.333C90.6667 266.388 88.2789 264 85.3334 264C82.3879 264 80 266.388 80 269.333ZM85.3334 334.333L86.3334 334.333L86.3334 269.333L85.3334 269.333L84.3334 269.333L84.3334 334.333L85.3334 334.333Z" fill="black"/>
<path d="M120 371.333C120 374.279 122.388 376.667 125.333 376.667C128.279 376.667 130.667 374.279 130.667 371.333C130.667 368.388 128.279 366 125.333 366C122.388 366 120 368.388 120 371.333ZM120 235.333C120 238.279 122.388 240.667 125.333 240.667C128.279 240.667 130.667 238.279 130.667 235.333C130.667 232.388 128.279 230 125.333 230C122.388 230 120 232.388 120 235.333ZM125.333 371.333H126.333V235.333H125.333H124.333V371.333H125.333Z" fill="black"/>
<path d="M160 338.333C160 341.279 162.388 343.667 165.333 343.667C168.279 343.667 170.667 341.279 170.667 338.333C170.667 335.388 168.279 333 165.333 333C162.388 333 160 335.388 160 338.333ZM160 261.333C160 264.279 162.388 266.667 165.333 266.667C168.279 266.667 170.667 264.279 170.667 261.333C170.667 258.388 168.279 256 165.333 256C162.388 256 160 258.388 160 261.333ZM165.333 338.333H166.333V261.333H165.333H164.333V338.333H165.333Z" fill="black"/>
<path d="M200 345.333C200 348.279 202.388 350.667 205.333 350.667C208.279 350.667 210.667 348.279 210.667 345.333C210.667 342.388 208.279 340 205.333 340C202.388 340 200 342.388 200 345.333ZM200 225.333C200 228.279 202.388 230.667 205.333 230.667C208.279 230.667 210.667 228.279 210.667 225.333C210.667 222.388 208.279 220 205.333 220C202.388 220 200 222.388 200 225.333ZM205.333 345.333H206.333V225.333H205.333H204.333V345.333H205.333Z" fill="black"/>
<path d="M240 295.333C240 298.279 242.388 300.667 245.333 300.667C248.279 300.667 250.667 298.279 250.667 295.333C250.667 292.388 248.279 290 245.333 290C242.388 290 240 292.388 240 295.333ZM240 175.333C240 178.279 242.388 180.667 245.333 180.667C248.279 180.667 250.667 178.279 250.667 175.333C250.667 172.388 248.279 170 245.333 170C242.388 170 240 172.388 240 175.333ZM245.333 295.333H246.333V175.333H245.333H244.333V295.333H245.333Z" fill="black"/>
<path d="M400 185.333C400 188.279 402.388 190.667 405.333 190.667C408.279 190.667 410.667 188.279 410.667 185.333C410.667 182.388 408.279 180 405.333 180C402.388 180 400 182.388 400 185.333ZM400 65.3335C400 68.279 402.388 70.6668 405.333 70.6668C408.279 70.6668 410.667 68.279 410.667 65.3335C410.667 62.388 408.279 60.0002 405.333 60.0002C402.388 60.0002 400 62.388 400 65.3335ZM405.333 185.333H406.333V65.3335H405.333H404.333V185.333H405.333Z" fill="black"/>
<path d="M440 125.333C440 128.279 442.388 130.667 445.333 130.667C448.279 130.667 450.667 128.279 450.667 125.333C450.667 122.388 448.279 120 445.333 120C442.388 120 440 122.388 440 125.333ZM440 5.3335C440 8.27901 442.388 10.6668 445.333 10.6668C448.279 10.6668 450.667 8.27901 450.667 5.3335C450.667 2.38798 448.279 0.000162601 445.333 0.000162601C442.388 0.000162601 440 2.38798 440 5.3335ZM445.333 125.333H446.333V5.3335H445.333H444.333V125.333H445.333Z" fill="black"/>
<path d="M360 245.333C360 248.279 362.388 250.667 365.333 250.667C368.279 250.667 370.667 248.279 370.667 245.333C370.667 242.388 368.279 240 365.333 240C362.388 240 360 242.388 360 245.333ZM360 35.3335C360 38.279 362.388 40.6668 365.333 40.6668C368.279 40.6668 370.667 38.279 370.667 35.3335C370.667 32.388 368.279 30.0002 365.333 30.0002C362.388 30.0002 360 32.388 360 35.3335ZM365.333 245.333L366.333 245.333L366.333 35.3335L365.333 35.3335L364.333 35.3335L364.333 245.333L365.333 245.333Z" fill="black"/>
<path d="M280 235.333C280 238.279 282.388 240.667 285.333 240.667C288.279 240.667 290.667 238.279 290.667 235.333C290.667 232.388 288.279 230 285.333 230C282.388 230 280 232.388 280 235.333ZM280 89.3335C280 92.279 282.388 94.6668 285.333 94.6668C288.279 94.6668 290.667 92.279 290.667 89.3335C290.667 86.388 288.279 84.0002 285.333 84.0002C282.388 84.0002 280 86.388 280 89.3335ZM285.333 235.333H286.333V89.3335H285.333H284.333V235.333H285.333Z" fill="black"/>
<path d="M320 235.333C320 238.279 322.388 240.667 325.333 240.667C328.279 240.667 330.667 238.279 330.667 235.333C330.667 232.388 328.279 230 325.333 230C322.388 230 320 232.388 320 235.333ZM320 135.333C320 138.279 322.388 140.667 325.333 140.667C328.279 140.667 330.667 138.279 330.667 135.333C330.667 132.388 328.279 130 325.333 130C322.388 130 320 132.388 320 135.333ZM325.333 235.333L326.333 235.333L326.333 135.333L325.333 135.333L324.333 135.333L324.333 235.333L325.333 235.333Z" fill="black"/>
</svg>
